<?xml version="1.0"?><svg fill="#000000" xmlns="http://www.w3.org/2000/svg"  viewBox="0 0 100 100" width="100px" height="100px">    <path d="M 30.882812 16 C 23.714813 16 17.882812 21.832 17.882812 29 L 17.882812 68 C 17.882812 75.168 23.714812 81 30.882812 81 L 69.882812 81 C 77.050813 81 82.882812 75.168 82.882812 68 L 82.882812 29 C 82.882812 21.832 77.050812 16 69.882812 16 L 30.882812 16 z M 30.882812 18 L 69.882812 18 C 75.947812 18 80.882812 22.935 80.882812 29 L 80.882812 68 C 80.882812 74.065 75.947812 79 69.882812 79 L 30.882812 79 C 24.817812 79 19.882812 74.065 19.882812 68 L 19.882812 29 C 19.882812 22.935 24.817812 18 30.882812 18 z M 33.71875 21 C 27.74275 21 22.882813 25.861891 22.882812 31.837891 L 22.882812 65.162109 C 22.882812 71.138109 27.74275 76 33.71875 76 L 67.044922 76 C 73.020922 76 77.882812 71.138109 77.882812 65.162109 L 77.882812 46.5 C 77.882812 46.224 77.658812 46 77.382812 46 C 77.106813 46 76.882812 46.224 76.882812 46.5 L 76.882812 65.162109 C 76.882812 70.586109 72.468922 75 67.044922 75 L 33.71875 75 C 28.29475 75 23.882813 70.586109 23.882812 65.162109 L 23.882812 31.837891 C 23.882812 26.413891 28.29475 22 33.71875 22 L 67.382812 22 C 67.658812 22 67.882812 21.776 67.882812 21.5 C 67.882812 21.224 67.658812 21 67.382812 21 L 33.71875 21 z M 77.382812 36 C 77.106813 36 76.882812 36.224 76.882812 36.5 L 76.882812 38.5 C 76.882812 38.776 77.106813 39 77.382812 39 C 77.658812 39 77.882812 38.776 77.882812 38.5 L 77.882812 36.5 C 77.882812 36.224 77.658812 36 77.382812 36 z M 42.935547 36.197266 C 35.875547 36.197266 30.132813 41.941953 30.132812 49.001953 C 30.132812 56.061953 35.875547 61.804688 42.935547 61.804688 C 46.903547 61.804688 50.035094 60.515656 52.246094 57.972656 C 55.170094 54.610656 55.711188 49.841047 55.242188 46.498047 C 55.208188 46.251047 54.995094 46.068359 54.746094 46.068359 L 42.927734 46.068359 C 42.651734 46.068359 42.427734 46.292359 42.427734 46.568359 L 42.427734 51.441406 C 42.427734 51.574406 42.479266 51.702875 42.572266 51.796875 C 42.666266 51.889875 42.794734 51.941406 42.927734 51.941406 C 42.927734 51.941406 46.688188 51.934594 48.867188 51.933594 C 47.938187 54.342594 46.505734 55.806641 42.927734 55.806641 C 39.179734 55.806641 36.242187 52.817953 36.242188 49.001953 C 36.242188 45.185953 39.179734 42.193359 42.927734 42.193359 C 45.060734 42.193359 46.330719 43.002 47.386719 43.875 C 47.585719 44.039 47.877594 44.02675 48.058594 43.84375 C 48.414594 43.48675 48.639719 43.234031 48.886719 42.957031 C 49.351719 42.436031 49.877688 41.845719 51.554688 40.261719 C 51.655687 40.166719 51.711937 40.033531 51.710938 39.894531 C 51.709938 39.755531 51.649875 39.623297 51.546875 39.529297 C 49.183875 37.381297 46.124547 36.197266 42.935547 36.197266 z M 42.9375 37.195312 C 45.6985 37.195312 48.35175 38.157063 50.46875 39.914062 C 49.07275 41.247062 48.580578 41.799016 48.142578 42.291016 C 47.988578 42.464016 47.842062 42.626453 47.664062 42.814453 C 46.567062 41.971453 45.133734 41.193359 42.927734 41.193359 C 38.617734 41.194359 35.242187 44.623 35.242188 49 C 35.242188 53.377 38.618734 56.806641 42.927734 56.806641 C 46.760734 56.806641 48.824734 55.295844 50.052734 51.589844 C 50.103734 51.437844 50.075422 51.268672 49.982422 51.138672 C 49.888422 51.008672 49.738125 50.931641 49.578125 50.931641 C 48.032125 50.931641 44.693734 50.938406 43.427734 50.941406 L 43.427734 47.068359 L 54.306641 47.068359 C 54.641641 50.160359 54.073188 54.348406 51.492188 57.316406 C 49.480187 59.630406 46.6025 60.804688 42.9375 60.804688 C 36.4285 60.804688 31.132812 55.509 31.132812 49 C 31.132812 42.491 36.4285 37.195312 42.9375 37.195312 z M 77.382812 40 C 77.106813 40 76.882812 40.224 76.882812 40.5 L 76.882812 44.5 C 76.882812 44.776 77.106813 45 77.382812 45 C 77.658812 45 77.882812 44.776 77.882812 44.5 L 77.882812 40.5 C 77.882812 40.224 77.658812 40 77.382812 40 z M 62.0625 42.039062 C 61.7865 42.039062 61.5625 42.263063 61.5625 42.539062 L 61.5625 46.304688 L 57.681641 46.304688 C 57.405641 46.304688 57.181641 46.528687 57.181641 46.804688 L 57.181641 49.845703 C 57.181641 50.121703 57.405641 50.345703 57.681641 50.345703 L 61.5625 50.345703 L 61.5625 54.226562 C 61.5625 54.502563 61.7865 54.726562 62.0625 54.726562 L 65.101562 54.726562 C 65.377562 54.726562 65.601562 54.502563 65.601562 54.226562 L 65.601562 50.345703 L 69.369141 50.345703 C 69.645141 50.345703 69.869141 50.121703 69.869141 49.845703 L 69.869141 46.804688 C 69.869141 46.528687 69.645141 46.304687 69.369141 46.304688 L 65.601562 46.304688 L 65.601562 42.539062 C 65.601562 42.263062 65.377562 42.039062 65.101562 42.039062 L 62.0625 42.039062 z M 62.560547 43.039062 L 64.601562 43.039062 L 64.601562 46.804688 C 64.601562 47.080688 64.825563 47.304688 65.101562 47.304688 L 68.867188 47.304688 L 68.867188 49.345703 L 65.101562 49.345703 C 64.825563 49.345703 64.601562 49.569703 64.601562 49.845703 L 64.601562 53.726562 L 62.560547 53.726562 L 62.560547 49.845703 C 62.560547 49.569703 62.336547 49.345703 62.060547 49.345703 L 58.181641 49.345703 L 58.181641 47.304688 L 62.060547 47.304688 C 62.336547 47.304688 62.560547 47.080688 62.560547 46.804688 L 62.560547 43.039062 z"/></svg>