<svg width="24" height="26" viewBox="0 0 24 26" fill="none" xmlns="http://www.w3.org/2000/svg">
<path d="M5.128 12.096C4.2 12.096 3.37333 11.9093 2.648 11.536C1.92267 11.152 1.352 10.6293 0.936 9.968C0.530667 9.30667 0.328 8.54933 0.328 7.696V0.799999H3.08V7.552C3.08 7.95733 3.17067 8.32533 3.352 8.656C3.53333 8.976 3.77867 9.232 4.088 9.424C4.39733 9.60533 4.744 9.696 5.128 9.696C5.53333 9.696 5.89067 9.60533 6.2 9.424C6.52 9.232 6.776 8.976 6.968 8.656C7.16 8.32533 7.256 7.95733 7.256 7.552V0.799999H9.912V7.696C9.912 8.54933 9.704 9.30667 9.288 9.968C8.88267 10.6293 8.31733 11.152 7.592 11.536C6.86667 11.9093 6.04533 12.096 5.128 12.096ZM12.6424 12V0.799999H15.0744L19.1544 7.44L17.4104 7.424L21.5384 0.799999H23.8744V12H21.2344V8.512C21.2344 7.552 21.2557 6.688 21.2984 5.92C21.3517 5.152 21.437 4.38933 21.5544 3.632L21.8584 4.464L18.7544 9.28H17.6984L14.6584 4.496L14.9624 3.632C15.0797 4.34667 15.1597 5.08267 15.2024 5.84C15.2557 6.58667 15.2824 7.47733 15.2824 8.512V12H12.6424ZM2.392 22.72L1.688 20.432L7.24 14.8H10.456L2.392 22.72ZM0.408 26V14.8H3.128V26H0.408ZM7.592 26L3.432 20.528L5.272 18.944L10.76 26H7.592ZM12.2361 26V14.8H14.6681L18.7481 21.44L17.0041 21.424L21.1321 14.8H23.4681V26H20.8281V22.512C20.8281 21.552 20.8495 20.688 20.8921 19.92C20.9455 19.152 21.0308 18.3893 21.1481 17.632L21.4521 18.464L18.3481 23.28H17.2921L14.2521 18.496L14.5561 17.632C14.6735 18.3467 14.7535 19.0827 14.7961 19.84C14.8495 20.5867 14.8761 21.4773 14.8761 22.512V26H12.2361Z" fill="#0D253C"/>
</svg>
